<svg xmlns="http://www.w3.org/2000/svg" width="16" height="18" viewBox="0 0 16 18">
    <path fill="#3F4548" fill-rule="evenodd" d="M1.418 17.312c0 .379-.327.688-.714.688C.322 18 0 17.69 0 17.307c0-1.257.528-2.2 1.257-2.893 1.016-.948 2.434-1.365 3.279-1.439.17-.02.322-.083.427-.182.066-.064.106-.147.126-.226-.664-.535-.975-1.272-1.227-1.895-.131-.305-.241-.56-.302-.634l-.015-.02L3.54 10h-.044v.023c-.307-.265-.694-.766-.91-1.336-.222-.565-.267-1.189.064-1.759-.176-.52-.261-1.09-.261-1.68-.01-.751.113-1.512.354-2.21l.032-.058c.341-.978.925-1.695 1.67-2.181C5.239.268 6.225.028 7.33.003c.412-.005.976-.015 1.524.088.628.108 1.222.344 1.584.84.744-.064 1.393.339 1.9.928.624.708 1.072 1.74 1.167 2.348.08.453.08.924.01 1.425-.05.388-.14.805-.261 1.218.382.59.332 1.247.11 1.827-.22.57-.633 1.08-.935 1.341l-.014.01-.014.01v.005c-.102.068-.182.329-.308.629-.246.618-.54 1.34-1.19 1.866.016.093.067.182.138.255.1.099.261.163.427.182.84.074 2.258.491 3.274 1.44.724.687 1.257 1.635 1.257 2.897 0 .379-.322.688-.704.688-.392 0-.704-.31-.704-.693 0-.825-.351-1.439-.83-1.89-.748-.703-1.795-1.017-2.418-1.062-.503-.049-.965-.255-1.307-.59-.383-.363-.925-1.733-.216-2.17.497-.29.767-.914.973-1.44.196-.466.38-.869.687-1.154v.01l-.003-.01c.175-.152.433-.466.564-.81.1-.255.117-.491-.054-.691h.005c-.186-.2-.252-.56-.166-.812.14-.437.241-.842.287-1.235.045-.369.055-.711-.006-1.05-.06-.413-.382-1.13-.84-1.65-.24-.28-.502-.481-.723-.442-.247.035-.488 0-.71-.098-.19-.093-.361-.231-.492-.412l-.045-.05c-.106-.157-.378-.255-.694-.31-.418-.072-.89-.063-1.242-.053-.84.01-1.57.177-2.137.56-.493.32-.875.805-1.122 1.488l-.02.054c-.186.545-.291 1.15-.281 1.739.01.526.095 1.031.27 1.454.082.133.112.3.077.452-.076.452-.448.471-.227 1.06.13.325.383.624.558.786L4.5 9h.01c.307.3.473.688.66 1.145.22.526.482 1.165.975 1.465.221.107.372.336.372.611 0 .59-.1 1.102-.553 1.544-.332.334-.805.54-1.318.59-.618.044-1.659.359-2.403 1.06-.483.453-.825 1.067-.825 1.897"/>
</svg>
